name C:\Users\Nicos\Desktop\Gil_twoSteps\Study2\ExperimentalData\IK_Splined\twoSteps_IK_BSplines_200_meshInts_study2_p02_s_01_lowIK_modROI.mot
datacolumns 38
datarows 6
range 0.65500000 0.65751801
endheader
                time	         pelvis_tilt	         pelvis_list	     pelvis_rotation	           pelvis_tx	           pelvis_ty	           pelvis_tz	       hip_flexion_r	     hip_adduction_r	      hip_rotation_r	        knee_angle_r	       ankle_angle_r	    subtalar_angle_r	         mtp_angle_r	       hip_flexion_l	     hip_adduction_l	      hip_rotation_l	        knee_angle_l	       ankle_angle_l	    subtalar_angle_l	         mtp_angle_l	    lumbar_extension	      lumbar_bending	     lumbar_rotation	          arm_flex_r	           arm_add_r	           arm_rot_r	        elbow_flex_r	           pro_sup_r	        wrist_flex_r	         wrist_dev_r	          arm_flex_l	           arm_add_l	           arm_rot_l	        elbow_flex_l	           pro_sup_l	        wrist_flex_l	         wrist_dev_l	
          0.65500000	        -17.54940729	          3.75594132	          9.30500660	          0.30818292	          0.89318239	          0.34005579	         30.45808100	         -9.40490975	        -15.86563264	       -111.22229319	        -14.95141376	        -31.61894475	         -8.98118764	         30.88865379	          6.10891523	         -0.16598300	        -50.40870620	         22.03712544	         -8.94914148	          6.04284810	        -27.94407815	         -9.08669657	         -2.16880012	        -29.64244967	        -10.40018421	        -15.94991211	         49.25413444	         77.12120208	        -27.11799159	         30.37115664	         -2.33918872	        -11.78788584	         -7.94664219	         69.04884137	         69.47918966	          4.67582910	         19.78428509	
          0.65533801	        -17.56388792	          3.72460512	          9.39950221	          0.30992599	          0.89308877	          0.33994209	         30.68714448	         -9.43368298	        -15.90819527	       -111.39664993	        -14.81853375	        -31.60684159	         -8.95903693	         30.76630919	          6.10318379	         -0.09810465	        -50.36462337	         22.05797465	         -8.94368205	          6.09440827	        -27.92303061	         -8.98934860	         -2.18268937	        -29.84090822	        -10.35337338	        -16.01316494	         49.03951920	         77.12814636	        -27.10410533	         30.42708028	         -2.08628107	        -11.72822646	         -7.85315065	         69.21746144	         69.43785940	          4.67771336	         19.76984732	
          0.65640599	        -17.60964080	          3.62559550	          9.69806975	          0.31543338	          0.89279298	          0.33958287	         31.41089158	         -9.52459463	        -16.04267581	       -111.94754608	        -14.39868717	        -31.56860055	         -8.88904971	         30.37975022	          6.08507478	          0.11636323	        -50.22533962	         22.12384967	         -8.92643247	          6.25731735	        -27.85652899	         -8.68176874	         -2.22657375	        -30.46795624	        -10.20547027	        -16.21301804	         48.36142265	         77.15008744	        -27.06023042	         30.60377617	         -1.28719613	        -11.53972716	         -7.55775557	         69.75023202	         69.30727267	          4.68366684	         19.72422983	
          0.65718000	        -17.63993687	          3.55082673	          9.92348456	          0.31941199	          0.89258397	          0.33932143	         31.93644542	         -9.59781866	        -16.14279083	       -112.32915835	        -14.09799040	        -31.53998131	         -8.83549133	         30.10141174	          6.06397378	          0.27871925	        -50.12403877	         22.15186071	         -8.90484295	          6.38516945	        -27.80914217	         -8.44917266	         -2.27049708	        -30.94006051	        -10.08242160	        -16.40260815	         47.95460579	         77.14558013	        -27.02437110	         30.72198463	         -0.71724155	        -11.39988069	         -7.34396073	         70.16515213	         69.18978625	          4.68599797	         19.69604407	
          0.65718000	        -17.63993687	          3.55082673	          9.92348456	          0.31941199	          0.89258397	          0.33932143	         31.93644542	         -9.59781866	        -16.14279083	       -112.32915835	        -14.09799040	        -31.53998131	         -8.83549133	         30.10141174	          6.06397378	          0.27871925	        -50.12403877	         22.15186071	         -8.90484295	          6.38516945	        -27.80914217	         -8.44917266	         -2.27049708	        -30.94006051	        -10.08242160	        -16.40260815	         47.95460579	         77.14558013	        -27.02437110	         30.72198463	         -0.71724155	        -11.39988069	         -7.34396073	         70.16515213	         69.18978625	          4.68599797	         19.69604407	
          0.65751801	        -17.65307464	          3.51807780	         10.02221523	          0.32114904	          0.89249287	          0.33920722	         32.16598818	         -9.63003278	        -16.18659681	       -112.49523829	        -13.96679179	        -31.52745403	         -8.81201069	         29.97991990	          6.05450114	          0.34984396	        -50.07978912	         22.16345537	         -8.89512104	          6.44131882	        -27.78847450	         -8.34728493	         -2.29007013	        -31.14679942	        -10.02817363	        -16.48684866	         47.77968408	         77.14295210	        -27.00858005	         30.77328793	         -0.46863866	        -11.33870515	         -7.25060579	         70.34727884	         69.13774145	          4.68695186	         19.68389292	
